<?xml version="1.0" encoding="UTF-8" standalone="no"?>
<!DOCTYPE svg PUBLIC "-//W3C//DTD SVG 1.1//EN"
 "http://www.w3.org/Graphics/SVG/1.1/DTD/svg11.dtd">
<!-- Generated by graphviz version 2.43.0 (0)
 -->
<!-- Title: ChessBotCore/include/chessbotcore_global.h Pages: 1 -->
<svg width="306pt" height="170pt"
 viewBox="0.00 0.00 306.00 170.00" xmlns="http://www.w3.org/2000/svg" xmlns:xlink="http://www.w3.org/1999/xlink">
<g id="graph0" class="graph" transform="scale(1 1) rotate(0) translate(4 166)">
<title>ChessBotCore/include/chessbotcore_global.h</title>
<!-- Node1 -->
<g id="Node000001" class="node">
<title>Node1</title>
<g id="a_Node000001"><a xlink:title=" ">
<polygon fill="#999999" stroke="#666666" points="218.5,-162 90.5,-162 90.5,-132 218.5,-132 218.5,-162"/>
<text text-anchor="start" x="98.5" y="-150" font-family="Helvetica,sans-Serif" font-size="10.00">ChessBotCore/include</text>
<text text-anchor="middle" x="154.5" y="-139" font-family="Helvetica,sans-Serif" font-size="10.00">/chessbotcore_global.h</text>
</a>
</g>
</g>
<!-- Node2 -->
<g id="Node000002" class="node">
<title>Node2</title>
<g id="a_Node000002"><a xlink:href="ChessBotCore_8h.html" target="_top" xlink:title=" ">
<polygon fill="white" stroke="#666666" points="216,-96 93,-96 93,-66 216,-66 216,-96"/>
<text text-anchor="start" x="101" y="-84" font-family="Helvetica,sans-Serif" font-size="10.00">ChessBotCore/include</text>
<text text-anchor="middle" x="154.5" y="-73" font-family="Helvetica,sans-Serif" font-size="10.00">/ChessBotCore.h</text>
</a>
</g>
</g>
<!-- Node1&#45;&gt;Node2 -->
<g id="edge1_Node000001_Node000002" class="edge">
<title>Node1&#45;&gt;Node2</title>
<g id="a_edge1_Node000001_Node000002"><a xlink:title=" ">
<path fill="none" stroke="#63b8ff" d="M154.5,-121.54C154.5,-112.96 154.5,-103.61 154.5,-96.16"/>
<polygon fill="#63b8ff" stroke="#63b8ff" points="151,-121.8 154.5,-131.8 158,-121.8 151,-121.8"/>
</a>
</g>
</g>
<!-- Node3 -->
<g id="Node000003" class="node">
<title>Node3</title>
<g id="a_Node000003"><a xlink:href="ChessBotCore_8cpp.html" target="_top" xlink:title=" ">
<polygon fill="white" stroke="#666666" points="151,-30 0,-30 0,0 151,0 151,-30"/>
<text text-anchor="start" x="8" y="-18" font-family="Helvetica,sans-Serif" font-size="10.00">ChessBotCore/src/ChessBot</text>
<text text-anchor="middle" x="75.5" y="-7" font-family="Helvetica,sans-Serif" font-size="10.00">Core.cpp</text>
</a>
</g>
</g>
<!-- Node2&#45;&gt;Node3 -->
<g id="edge2_Node000002_Node000003" class="edge">
<title>Node2&#45;&gt;Node3</title>
<g id="a_edge2_Node000002_Node000003"><a xlink:title=" ">
<path fill="none" stroke="#63b8ff" d="M129.17,-59.48C117.36,-49.91 103.61,-38.77 92.98,-30.16"/>
<polygon fill="#63b8ff" stroke="#63b8ff" points="126.99,-62.22 136.97,-65.8 131.4,-56.78 126.99,-62.22"/>
</a>
</g>
</g>
<!-- Node4 -->
<g id="Node000004" class="node">
<title>Node4</title>
<g id="a_Node000004"><a xlink:href="test_8cpp.html" target="_top" xlink:title=" ">
<polygon fill="white" stroke="#666666" points="298,-24.5 169,-24.5 169,-5.5 298,-5.5 298,-24.5"/>
<text text-anchor="middle" x="233.5" y="-12.5" font-family="Helvetica,sans-Serif" font-size="10.00">ChessBotTests/test.cpp</text>
</a>
</g>
</g>
<!-- Node2&#45;&gt;Node4 -->
<g id="edge3_Node000002_Node000004" class="edge">
<title>Node2&#45;&gt;Node4</title>
<g id="a_edge3_Node000002_Node000004"><a xlink:title=" ">
<path fill="none" stroke="#63b8ff" d="M180.1,-59.26C194.48,-47.61 211.67,-33.69 222.58,-24.84"/>
<polygon fill="#63b8ff" stroke="#63b8ff" points="177.6,-56.78 172.03,-65.8 182.01,-62.22 177.6,-56.78"/>
</a>
</g>
</g>
</g>
</svg>
