<?xml version="1.0" encoding="UTF-8" standalone="no"?>
<!DOCTYPE svg PUBLIC "-//W3C//DTD SVG 1.1//EN"
 "http://www.w3.org/Graphics/SVG/1.1/DTD/svg11.dtd">
<!-- Generated by graphviz version 2.43.0 (0)
 -->
<!-- Title: ChessBot/main.cpp Pages: 1 -->
<svg width="331pt" height="137pt"
 viewBox="0.00 0.00 331.00 137.00" xmlns="http://www.w3.org/2000/svg" xmlns:xlink="http://www.w3.org/1999/xlink">
<g id="graph0" class="graph" transform="scale(1 1) rotate(0) translate(4 133)">
<title>ChessBot/main.cpp</title>
<!-- Node1 -->
<g id="Node000001" class="node">
<title>Node1</title>
<g id="a_Node000001"><a xlink:title=" ">
<polygon fill="#999999" stroke="#666666" points="251.5,-129 141.5,-129 141.5,-110 251.5,-110 251.5,-129"/>
<text text-anchor="middle" x="196.5" y="-117" font-family="Helvetica,sans-Serif" font-size="10.00">ChessBot/main.cpp</text>
</a>
</g>
</g>
<!-- Node2 -->
<g id="Node000002" class="node">
<title>Node2</title>
<g id="a_Node000002"><a xlink:href="ChessBot_8h.html" target="_top" xlink:title=" ">
<polygon fill="white" stroke="#666666" points="172,-74 101,-74 101,-55 172,-55 172,-74"/>
<text text-anchor="middle" x="136.5" y="-62" font-family="Helvetica,sans-Serif" font-size="10.00">ChessBot.h</text>
</a>
</g>
</g>
<!-- Node1&#45;&gt;Node2 -->
<g id="edge1_Node000001_Node000002" class="edge">
<title>Node1&#45;&gt;Node2</title>
<g id="a_edge1_Node000001_Node000002"><a xlink:title=" ">
<path fill="none" stroke="#63b8ff" d="M186.86,-109.98C177.99,-102.15 164.63,-90.34 153.89,-80.86"/>
<polygon fill="#63b8ff" stroke="#63b8ff" points="156.13,-78.17 146.32,-74.17 151.49,-83.41 156.13,-78.17"/>
</a>
</g>
</g>
<!-- Node5 -->
<g id="Node000005" class="node">
<title>Node5</title>
<g id="a_Node000005"><a xlink:title=" ">
<polygon fill="#e0e0e0" stroke="#999999" points="323,-74 190,-74 190,-55 323,-55 323,-74"/>
<text text-anchor="middle" x="256.5" y="-62" font-family="Helvetica,sans-Serif" font-size="10.00">QtWidgets/QApplication</text>
</a>
</g>
</g>
<!-- Node1&#45;&gt;Node5 -->
<g id="edge4_Node000001_Node000005" class="edge">
<title>Node1&#45;&gt;Node5</title>
<g id="a_edge4_Node000001_Node000005"><a xlink:title=" ">
<path fill="none" stroke="#63b8ff" d="M206.14,-109.98C215.01,-102.15 228.37,-90.34 239.11,-80.86"/>
<polygon fill="#63b8ff" stroke="#63b8ff" points="241.51,-83.41 246.68,-74.17 236.87,-78.17 241.51,-83.41"/>
</a>
</g>
</g>
<!-- Node3 -->
<g id="Node000003" class="node">
<title>Node3</title>
<g id="a_Node000003"><a xlink:title=" ">
<polygon fill="#e0e0e0" stroke="#999999" points="141,-19 0,-19 0,0 141,0 141,-19"/>
<text text-anchor="middle" x="70.5" y="-7" font-family="Helvetica,sans-Serif" font-size="10.00">QtWidgets/QMainWindow</text>
</a>
</g>
</g>
<!-- Node2&#45;&gt;Node3 -->
<g id="edge2_Node000002_Node000003" class="edge">
<title>Node2&#45;&gt;Node3</title>
<g id="a_edge2_Node000002_Node000003"><a xlink:title=" ">
<path fill="none" stroke="#63b8ff" d="M125.9,-54.98C116.04,-47.07 101.15,-35.11 89.28,-25.58"/>
<polygon fill="#63b8ff" stroke="#63b8ff" points="91.29,-22.7 81.3,-19.17 86.9,-28.16 91.29,-22.7"/>
</a>
</g>
</g>
<!-- Node4 -->
<g id="Node000004" class="node">
<title>Node4</title>
<g id="a_Node000004"><a xlink:title=" ">
<polygon fill="#e0e0e0" stroke="#999999" points="245.5,-19 159.5,-19 159.5,0 245.5,0 245.5,-19"/>
<text text-anchor="middle" x="202.5" y="-7" font-family="Helvetica,sans-Serif" font-size="10.00">ui_ChessBot.h</text>
</a>
</g>
</g>
<!-- Node2&#45;&gt;Node4 -->
<g id="edge3_Node000002_Node000004" class="edge">
<title>Node2&#45;&gt;Node4</title>
<g id="a_edge3_Node000002_Node000004"><a xlink:title=" ">
<path fill="none" stroke="#63b8ff" d="M147.1,-54.98C156.96,-47.07 171.85,-35.11 183.72,-25.58"/>
<polygon fill="#63b8ff" stroke="#63b8ff" points="186.1,-28.16 191.7,-19.17 181.71,-22.7 186.1,-28.16"/>
</a>
</g>
</g>
</g>
</svg>
